<svg width="23" height="29" viewBox="0 0 23 29" fill="none" xmlns="http://www.w3.org/2000/svg">
<path fill-rule="evenodd" clip-rule="evenodd" d="M22.9734 11.1149C22.9734 4.97539 18.0542 -0.000192046 11.9863 -0.000192046C6.00398 -0.000192046 1.1467 4.84086 1.01195 10.8611C1.0078 10.859 1.00292 10.859 0.999325 10.859C0.99665 10.9135 1.0052 10.9683 1.00382 11.0233C1.0034 11.0536 0.999325 11.0843 0.999325 11.1149C0.999325 11.2253 1.01285 11.3319 1.01588 11.441C1.13945 18.6635 9.20875 26.2844 11.9864 28.9971C19.7868 22.599 22.0576 16.6642 22.7136 13.4997C22.7377 13.3887 22.7587 13.2782 22.7789 13.1671C22.8423 12.8263 22.886 12.5207 22.9166 12.2589C22.9166 12.2556 22.9175 12.2528 22.9175 12.2494C22.9992 11.5179 22.9734 11.1149 22.9734 11.1149Z" fill="#0A0A0A"/>
</svg>
